# xmcd
#
# Track frame offsets:
#	151
#	9981
#	23599
#	34376
#	49024
#	63736
#	77844
#	90529
#	106204
#	120224
#	134256
#	151054
#	171119
#	192619
#	210859
#	225549
#	246774
#	262639
#	284934
#	307704
#	325556
#
# Disc length: 4469 seconds
#
# Revision: 1
# Processed by: cddbd v1.5PL3 Copyright (c) Steve Scherf et al.
# Submitted via: audiograbber 1.83.01
#
DISCID=05117315
DTITLE=Bee Gees - The Very Best of the
DYEAR=1990
DGENRE=
TTITLE0=NEW YORK MINING DISASTER 1941
TTITLE1=TO LOVE SOMEBODY
TTITLE2=MASSACHUSETTS
TTITLE3=WORLD
TTITLE4=WORDS
TTITLE5=I´VE GOTTA GET A MESSAGE TO YOU
TTITLE6=FIRST OF MAY
TTITLE7=DON´T FORGET TO REMEMBER
TTITLE8=SAVED BY THE BELL
TTITLE9=RUN TO ME
TTITLE10=JIVE TALKIN´
TTITLE11=NIGHTS ON BROADWAY
TTITLE12=YOU SHOULD BE DANCING
TTITLE13=HOW DEEP IS YOUR LOVE
TTITLE14=MORE THAN A WOMAN
TTITLE15=STAYIN´ ALIVE
TTITLE16=NIGHT FEVER
TTITLE17=TOO MUCH HEAVEN
TTITLE18=TRAGEDY
TTITLE19=YOU WIN AGAIN
TTITLE20=ORDINARY LIVES
EXTD=
EXTT0=
EXTT1=
EXTT2=
EXTT3=
EXTT4=
EXTT5=
EXTT6=
EXTT7=
EXTT8=
EXTT9=
EXTT10=
EXTT11=
EXTT12=
EXTT13=
EXTT14=
EXTT15=
EXTT16=
EXTT17=
EXTT18=
EXTT19=
EXTT20=
PLAYORDER=
